<mxfile host="app.diagrams.net" agent="Mozilla/5.0 (Macintosh; Intel Mac OS X 10_15_7) AppleWebKit/537.36 (KHTML, like Gecko) Chrome/135.0.0.0 Safari/537.36" version="26.2.4">
  <diagram id="Ht1M8jgEwFfnCIfOTk4-" name="Page-1">
    <mxGraphModel dx="948" dy="1559" grid="1" gridSize="10" guides="1" tooltips="1" connect="1" arrows="1" fold="1" page="1" pageScale="1" pageWidth="1169" pageHeight="827" math="0" shadow="0">
      <root>
        <mxCell id="0" />
        <mxCell id="1" parent="0" />
        <mxCell id="kDhm5F_IAfh_UompYrQ_-14" value="AZ 1" style="fillColor=none;strokeColor=#147EBA;dashed=1;verticalAlign=top;fontStyle=0;fontColor=#147EBA;whiteSpace=wrap;html=1;" parent="1" vertex="1">
          <mxGeometry x="680" y="17" width="380" height="336" as="geometry" />
        </mxCell>
        <mxCell id="UEzPUAAOIrF-is8g5C7q-135" style="edgeStyle=orthogonalEdgeStyle;rounded=0;orthogonalLoop=1;jettySize=auto;html=1;startArrow=none;startFill=0;endArrow=open;endFill=0;strokeWidth=2;strokeColor=#808080;" parent="1" target="UEzPUAAOIrF-is8g5C7q-122" edge="1">
          <mxGeometry relative="1" as="geometry">
            <Array as="points">
              <mxPoint x="1230" y="402" />
            </Array>
            <mxPoint x="658.499112850026" y="401.5" as="sourcePoint" />
          </mxGeometry>
        </mxCell>
        <mxCell id="kDhm5F_IAfh_UompYrQ_-10" style="edgeStyle=orthogonalEdgeStyle;rounded=0;orthogonalLoop=1;jettySize=auto;html=1;" parent="1" target="kDhm5F_IAfh_UompYrQ_-2" edge="1">
          <mxGeometry relative="1" as="geometry">
            <mxPoint x="260" y="169.0999999999999" as="sourcePoint" />
          </mxGeometry>
        </mxCell>
        <mxCell id="UEzPUAAOIrF-is8g5C7q-116" value="Amazon S3" style="outlineConnect=0;fontColor=#232F3E;gradientColor=#60A337;gradientDirection=north;fillColor=#277116;strokeColor=#ffffff;dashed=0;verticalLabelPosition=bottom;verticalAlign=top;align=center;html=1;fontSize=12;fontStyle=0;aspect=fixed;shape=mxgraph.aws4.resourceIcon;resIcon=mxgraph.aws4.s3;labelBackgroundColor=#ffffff;" parent="1" vertex="1">
          <mxGeometry x="369.5000000000002" y="491.5" width="78" height="78" as="geometry" />
        </mxCell>
        <mxCell id="UEzPUAAOIrF-is8g5C7q-122" value="IAM Roles" style="outlineConnect=0;fontColor=#232F3E;gradientColor=none;fillColor=#C7131F;strokeColor=none;dashed=0;verticalLabelPosition=bottom;verticalAlign=top;align=center;html=1;fontSize=12;fontStyle=0;aspect=fixed;pointerEvents=1;shape=mxgraph.aws4.role;labelBackgroundColor=#ffffff;" parent="1" vertex="1">
          <mxGeometry x="1350.0000000000002" y="380" width="78" height="44" as="geometry" />
        </mxCell>
        <mxCell id="UEzPUAAOIrF-is8g5C7q-123" value="Amazon&lt;br&gt;CloudWatch Logs&lt;br&gt;" style="outlineConnect=0;fontColor=#232F3E;gradientColor=none;gradientDirection=north;fillColor=#F34482;strokeColor=none;dashed=0;verticalLabelPosition=bottom;verticalAlign=top;align=center;html=1;fontSize=12;fontStyle=0;aspect=fixed;shape=mxgraph.aws4.cloudwatch;labelBackgroundColor=#ffffff;" parent="1" vertex="1">
          <mxGeometry x="1350.0000000000002" y="463" width="78" height="78" as="geometry" />
        </mxCell>
        <mxCell id="kDhm5F_IAfh_UompYrQ_-11" style="edgeStyle=orthogonalEdgeStyle;rounded=0;orthogonalLoop=1;jettySize=auto;html=1;" parent="1" source="kDhm5F_IAfh_UompYrQ_-2" target="kDhm5F_IAfh_UompYrQ_-5" edge="1">
          <mxGeometry relative="1" as="geometry" />
        </mxCell>
        <mxCell id="kDhm5F_IAfh_UompYrQ_-2" value="Amazon Gateway" style="sketch=0;points=[[0,0,0],[0.25,0,0],[0.5,0,0],[0.75,0,0],[1,0,0],[0,1,0],[0.25,1,0],[0.5,1,0],[0.75,1,0],[1,1,0],[0,0.25,0],[0,0.5,0],[0,0.75,0],[1,0.25,0],[1,0.5,0],[1,0.75,0]];outlineConnect=0;fontColor=#232F3E;fillColor=#E7157B;strokeColor=#ffffff;dashed=0;verticalLabelPosition=bottom;verticalAlign=top;align=center;html=1;fontSize=12;fontStyle=0;aspect=fixed;shape=mxgraph.aws4.resourceIcon;resIcon=mxgraph.aws4.api_gateway;" parent="1" vertex="1">
          <mxGeometry x="369.5" y="336" width="78" height="78" as="geometry" />
        </mxCell>
        <mxCell id="kDhm5F_IAfh_UompYrQ_-3" value="" style="points=[[0,0],[0.25,0],[0.5,0],[0.75,0],[1,0],[1,0.25],[1,0.5],[1,0.75],[1,1],[0.75,1],[0.5,1],[0.25,1],[0,1],[0,0.75],[0,0.5],[0,0.25]];outlineConnect=0;gradientColor=none;html=1;whiteSpace=wrap;fontSize=12;fontStyle=0;container=1;pointerEvents=0;collapsible=0;recursiveResize=0;shape=mxgraph.aws4.group;grIcon=mxgraph.aws4.group_vpc2;strokeColor=#8C4FFF;fillColor=none;verticalAlign=top;align=left;spacingLeft=30;fontColor=#AAB7B8;dashed=0;" parent="1" vertex="1">
          <mxGeometry x="510" y="-40" width="580" height="1040" as="geometry" />
        </mxCell>
        <mxCell id="kDhm5F_IAfh_UompYrQ_-4" value="Virtual private cloud (VPC)" style="text;html=1;align=center;verticalAlign=middle;resizable=0;points=[];autosize=1;strokeColor=none;fillColor=none;" parent="kDhm5F_IAfh_UompYrQ_-3" vertex="1">
          <mxGeometry x="20" width="160" height="30" as="geometry" />
        </mxCell>
        <mxCell id="kDhm5F_IAfh_UompYrQ_-5" value="Application &lt;br&gt;Load &lt;br&gt;Balancer" style="sketch=0;outlineConnect=0;fontColor=#232F3E;gradientColor=none;fillColor=#8C4FFF;strokeColor=none;dashed=0;verticalLabelPosition=bottom;verticalAlign=top;align=center;html=1;fontSize=12;fontStyle=0;aspect=fixed;pointerEvents=1;shape=mxgraph.aws4.application_load_balancer;" parent="kDhm5F_IAfh_UompYrQ_-3" vertex="1">
          <mxGeometry x="36" y="376" width="78" height="78" as="geometry" />
        </mxCell>
        <mxCell id="kDhm5F_IAfh_UompYrQ_-9" value="Cloud" style="shape=umlFrame;whiteSpace=wrap;html=1;pointerEvents=0;" parent="1" vertex="1">
          <mxGeometry x="300" y="-80" width="1150" height="1120" as="geometry" />
        </mxCell>
        <mxCell id="kDhm5F_IAfh_UompYrQ_-16" value="Private subnet" style="points=[[0,0],[0.25,0],[0.5,0],[0.75,0],[1,0],[1,0.25],[1,0.5],[1,0.75],[1,1],[0.75,1],[0.5,1],[0.25,1],[0,1],[0,0.75],[0,0.5],[0,0.25]];outlineConnect=0;gradientColor=none;html=1;whiteSpace=wrap;fontSize=12;fontStyle=0;container=1;pointerEvents=0;collapsible=0;recursiveResize=0;shape=mxgraph.aws4.group;grIcon=mxgraph.aws4.group_security_group;grStroke=0;strokeColor=#00A4A6;fillColor=#E6F6F7;verticalAlign=top;align=left;spacingLeft=30;fontColor=#147EBA;dashed=0;" parent="1" vertex="1">
          <mxGeometry x="700" y="40" width="340" height="280" as="geometry" />
        </mxCell>
        <mxCell id="u08vJgaAmvAaUy4f1Lbe-3" value="EC2 Instance" style="sketch=0;points=[[0,0,0],[0.25,0,0],[0.5,0,0],[0.75,0,0],[1,0,0],[0,1,0],[0.25,1,0],[0.5,1,0],[0.75,1,0],[1,1,0],[0,0.25,0],[0,0.5,0],[0,0.75,0],[1,0.25,0],[1,0.5,0],[1,0.75,0]];outlineConnect=0;fontColor=#232F3E;fillColor=#ED7100;strokeColor=#ffffff;dashed=0;verticalLabelPosition=bottom;verticalAlign=top;align=center;html=1;fontSize=12;fontStyle=0;aspect=fixed;shape=mxgraph.aws4.resourceIcon;resIcon=mxgraph.aws4.ec2;" vertex="1" parent="kDhm5F_IAfh_UompYrQ_-16">
          <mxGeometry x="143.5" y="140" width="78" height="78" as="geometry" />
        </mxCell>
        <mxCell id="kDhm5F_IAfh_UompYrQ_-20" value="EC2 Instance" style="sketch=0;points=[[0,0,0],[0.25,0,0],[0.5,0,0],[0.75,0,0],[1,0,0],[0,1,0],[0.25,1,0],[0.5,1,0],[0.75,1,0],[1,1,0],[0,0.25,0],[0,0.5,0],[0,0.75,0],[1,0.25,0],[1,0.5,0],[1,0.75,0]];outlineConnect=0;fontColor=#232F3E;fillColor=#ED7100;strokeColor=#ffffff;dashed=0;verticalLabelPosition=bottom;verticalAlign=top;align=center;html=1;fontSize=12;fontStyle=0;aspect=fixed;shape=mxgraph.aws4.resourceIcon;resIcon=mxgraph.aws4.ec2;" parent="kDhm5F_IAfh_UompYrQ_-16" vertex="1">
          <mxGeometry x="143.5" y="20" width="78" height="78" as="geometry" />
        </mxCell>
        <mxCell id="kDhm5F_IAfh_UompYrQ_-17" value="Private subnet" style="points=[[0,0],[0.25,0],[0.5,0],[0.75,0],[1,0],[1,0.25],[1,0.5],[1,0.75],[1,1],[0.75,1],[0.5,1],[0.25,1],[0,1],[0,0.75],[0,0.5],[0,0.25]];outlineConnect=0;gradientColor=none;html=1;whiteSpace=wrap;fontSize=12;fontStyle=0;container=1;pointerEvents=0;collapsible=0;recursiveResize=0;shape=mxgraph.aws4.group;grIcon=mxgraph.aws4.group_security_group;grStroke=0;strokeColor=#00A4A6;fillColor=#E6F6F7;verticalAlign=top;align=left;spacingLeft=30;fontColor=#147EBA;dashed=0;" parent="1" vertex="1">
          <mxGeometry x="705" y="620" width="355" height="360.5" as="geometry" />
        </mxCell>
        <mxCell id="kDhm5F_IAfh_UompYrQ_-15" value="AZ 2" style="fillColor=none;strokeColor=#147EBA;dashed=1;verticalAlign=top;fontStyle=0;fontColor=#147EBA;whiteSpace=wrap;html=1;" parent="kDhm5F_IAfh_UompYrQ_-17" vertex="1">
          <mxGeometry x="-25" y="-30" width="380" height="390.5" as="geometry" />
        </mxCell>
        <mxCell id="kDhm5F_IAfh_UompYrQ_-21" value="EC2 Instance" style="sketch=0;points=[[0,0,0],[0.25,0,0],[0.5,0,0],[0.75,0,0],[1,0,0],[0,1,0],[0.25,1,0],[0.5,1,0],[0.75,1,0],[1,1,0],[0,0.25,0],[0,0.5,0],[0,0.75,0],[1,0.25,0],[1,0.5,0],[1,0.75,0]];outlineConnect=0;fontColor=#232F3E;fillColor=#ED7100;strokeColor=#ffffff;dashed=0;verticalLabelPosition=bottom;verticalAlign=top;align=center;html=1;fontSize=12;fontStyle=0;aspect=fixed;shape=mxgraph.aws4.resourceIcon;resIcon=mxgraph.aws4.ec2;" parent="kDhm5F_IAfh_UompYrQ_-17" vertex="1">
          <mxGeometry x="145" y="50" width="78" height="78" as="geometry" />
        </mxCell>
        <mxCell id="u08vJgaAmvAaUy4f1Lbe-6" value="Auto Scaling Group" style="sketch=0;points=[[0,0,0],[0.25,0,0],[0.5,0,0],[0.75,0,0],[1,0,0],[0,1,0],[0.25,1,0],[0.5,1,0],[0.75,1,0],[1,1,0],[0,0.25,0],[0,0.5,0],[0,0.75,0],[1,0.25,0],[1,0.5,0],[1,0.75,0]];outlineConnect=0;fontColor=#232F3E;fillColor=#ED7100;strokeColor=#ffffff;dashed=0;verticalLabelPosition=bottom;verticalAlign=top;align=center;html=1;fontSize=12;fontStyle=0;aspect=fixed;shape=mxgraph.aws4.resourceIcon;resIcon=mxgraph.aws4.auto_scaling2;" vertex="1" parent="kDhm5F_IAfh_UompYrQ_-17">
          <mxGeometry x="-25" y="150" width="80" height="80" as="geometry" />
        </mxCell>
        <mxCell id="u08vJgaAmvAaUy4f1Lbe-8" value="EC2 Instance" style="sketch=0;points=[[0,0,0],[0.25,0,0],[0.5,0,0],[0.75,0,0],[1,0,0],[0,1,0],[0.25,1,0],[0.5,1,0],[0.75,1,0],[1,1,0],[0,0.25,0],[0,0.5,0],[0,0.75,0],[1,0.25,0],[1,0.5,0],[1,0.75,0]];outlineConnect=0;fontColor=#232F3E;fillColor=#ED7100;strokeColor=#ffffff;dashed=0;verticalLabelPosition=bottom;verticalAlign=top;align=center;html=1;fontSize=12;fontStyle=0;aspect=fixed;shape=mxgraph.aws4.resourceIcon;resIcon=mxgraph.aws4.ec2;" vertex="1" parent="kDhm5F_IAfh_UompYrQ_-17">
          <mxGeometry x="145" y="200" width="78" height="78" as="geometry" />
        </mxCell>
        <mxCell id="MXB7GD_yDcB5z2myqqjR-4" style="edgeStyle=orthogonalEdgeStyle;rounded=0;orthogonalLoop=1;jettySize=auto;html=1;exitX=0.995;exitY=0.342;exitDx=0;exitDy=0;exitPerimeter=0;" parent="1" source="kDhm5F_IAfh_UompYrQ_-14" target="MXB7GD_yDcB5z2myqqjR-3" edge="1">
          <mxGeometry relative="1" as="geometry">
            <mxPoint x="1110" y="133" as="sourcePoint" />
          </mxGeometry>
        </mxCell>
        <mxCell id="MXB7GD_yDcB5z2myqqjR-6" value="Read/write" style="edgeLabel;html=1;align=center;verticalAlign=middle;resizable=0;points=[];" parent="MXB7GD_yDcB5z2myqqjR-4" vertex="1" connectable="0">
          <mxGeometry x="-0.0881" y="1" relative="1" as="geometry">
            <mxPoint as="offset" />
          </mxGeometry>
        </mxCell>
        <mxCell id="MXB7GD_yDcB5z2myqqjR-3" value="SQL (relational)&amp;nbsp;&lt;br&gt;Database" style="sketch=0;outlineConnect=0;fontColor=#232F3E;gradientColor=none;fillColor=#C925D1;strokeColor=none;dashed=0;verticalLabelPosition=bottom;verticalAlign=top;align=center;html=1;fontSize=12;fontStyle=0;aspect=fixed;pointerEvents=1;shape=mxgraph.aws4.rds_instance;" parent="1" vertex="1">
          <mxGeometry x="1169" y="440" width="78" height="78" as="geometry" />
        </mxCell>
        <mxCell id="MXB7GD_yDcB5z2myqqjR-5" style="edgeStyle=orthogonalEdgeStyle;rounded=0;orthogonalLoop=1;jettySize=auto;html=1;exitX=0.995;exitY=0.328;exitDx=0;exitDy=0;exitPerimeter=0;" parent="1" source="kDhm5F_IAfh_UompYrQ_-15" edge="1">
          <mxGeometry relative="1" as="geometry">
            <mxPoint x="1208" y="570" as="targetPoint" />
          </mxGeometry>
        </mxCell>
        <mxCell id="MXB7GD_yDcB5z2myqqjR-7" value="Read/write" style="edgeLabel;html=1;align=center;verticalAlign=middle;resizable=0;points=[];" parent="MXB7GD_yDcB5z2myqqjR-5" vertex="1" connectable="0">
          <mxGeometry x="0.0941" y="1" relative="1" as="geometry">
            <mxPoint as="offset" />
          </mxGeometry>
        </mxCell>
        <mxCell id="u08vJgaAmvAaUy4f1Lbe-1" value="Auto Scaling Group" style="sketch=0;points=[[0,0,0],[0.25,0,0],[0.5,0,0],[0.75,0,0],[1,0,0],[0,1,0],[0.25,1,0],[0.5,1,0],[0.75,1,0],[1,1,0],[0,0.25,0],[0,0.5,0],[0,0.75,0],[1,0.25,0],[1,0.5,0],[1,0.75,0]];outlineConnect=0;fontColor=#232F3E;fillColor=#ED7100;strokeColor=#ffffff;dashed=0;verticalLabelPosition=bottom;verticalAlign=top;align=center;html=1;fontSize=12;fontStyle=0;aspect=fixed;shape=mxgraph.aws4.resourceIcon;resIcon=mxgraph.aws4.auto_scaling2;" vertex="1" parent="1">
          <mxGeometry x="680" y="110" width="80" height="80" as="geometry" />
        </mxCell>
        <mxCell id="u08vJgaAmvAaUy4f1Lbe-5" style="edgeStyle=orthogonalEdgeStyle;rounded=0;orthogonalLoop=1;jettySize=auto;html=1;entryX=0;entryY=0.5;entryDx=0;entryDy=0;entryPerimeter=0;" edge="1" parent="1" source="kDhm5F_IAfh_UompYrQ_-5" target="u08vJgaAmvAaUy4f1Lbe-1">
          <mxGeometry relative="1" as="geometry">
            <Array as="points">
              <mxPoint x="590" y="150" />
            </Array>
          </mxGeometry>
        </mxCell>
        <mxCell id="u08vJgaAmvAaUy4f1Lbe-11" value="HTTP" style="edgeLabel;html=1;align=center;verticalAlign=middle;resizable=0;points=[];" vertex="1" connectable="0" parent="u08vJgaAmvAaUy4f1Lbe-5">
          <mxGeometry x="-0.7029" y="1" relative="1" as="geometry">
            <mxPoint as="offset" />
          </mxGeometry>
        </mxCell>
        <mxCell id="u08vJgaAmvAaUy4f1Lbe-7" style="edgeStyle=orthogonalEdgeStyle;rounded=0;orthogonalLoop=1;jettySize=auto;html=1;entryX=0;entryY=0.5;entryDx=0;entryDy=0;entryPerimeter=0;" edge="1" parent="1" target="u08vJgaAmvAaUy4f1Lbe-6">
          <mxGeometry relative="1" as="geometry">
            <mxPoint x="590" y="470" as="sourcePoint" />
            <Array as="points">
              <mxPoint x="590" y="810" />
            </Array>
          </mxGeometry>
        </mxCell>
        <mxCell id="u08vJgaAmvAaUy4f1Lbe-12" value="HTTP" style="edgeLabel;html=1;align=center;verticalAlign=middle;resizable=0;points=[];" vertex="1" connectable="0" parent="u08vJgaAmvAaUy4f1Lbe-7">
          <mxGeometry x="-0.6744" y="2" relative="1" as="geometry">
            <mxPoint as="offset" />
          </mxGeometry>
        </mxCell>
        <mxCell id="u08vJgaAmvAaUy4f1Lbe-13" value="" style="sketch=0;outlineConnect=0;fontColor=#232F3E;gradientColor=none;fillColor=#232F3D;strokeColor=none;dashed=0;verticalLabelPosition=bottom;verticalAlign=top;align=center;html=1;fontSize=12;fontStyle=0;aspect=fixed;pointerEvents=1;shape=mxgraph.aws4.user;" vertex="1" parent="1">
          <mxGeometry x="190" y="124" width="78" height="78" as="geometry" />
        </mxCell>
      </root>
    </mxGraphModel>
  </diagram>
</mxfile>
